<svg width="50" height="50" viewBox="0 0 50 50" fill="none" xmlns="http://www.w3.org/2000/svg">
<path d="M42.5 0H7.5C3.35968 0.00457775 0.00457775 3.35968 0 7.5V30.1709V42.5C0.00457775 46.6403 3.35968 49.9954 7.5 50H42.5C42.9558 49.9994 43.4053 49.9451 43.8489 49.8627C44.0141 49.8325 44.1718 49.7868 44.333 49.7459C44.5981 49.6782 44.8582 49.5993 45.1143 49.5029C45.3004 49.4331 45.4822 49.36 45.661 49.2763C45.871 49.1774 46.0716 49.0628 46.2721 48.9444C46.4601 48.8339 46.6501 48.7303 46.8271 48.6044C46.8416 48.5941 46.8581 48.5872 46.8726 48.5767C46.8912 48.5632 46.9072 48.5466 46.925 48.5321C46.9592 48.5045 47.0021 48.4909 47.0334 48.4596C47.05 48.443 47.0552 48.4207 47.0706 48.4035C48.8388 47.0316 49.9974 44.9107 50 42.5V35.1758V7.5C49.9954 3.35968 46.6403 0.00457775 42.5 0ZM43.9374 47.2635C43.4709 47.408 42.9887 47.4997 42.5 47.5H7.5C4.73999 47.4965 2.50351 45.26 2.5 42.5V30.6885L11.9067 21.2817C13.6168 19.5776 16.3832 19.5776 18.0933 21.2817L26.6054 29.7931C26.6101 29.798 26.6113 29.8045 26.6162 29.8094L44.0387 47.2319C44.0051 47.2429 43.9713 47.2531 43.9374 47.2635ZM47.5 42.5C47.4983 43.7907 46.9949 44.9554 46.1914 45.8424L29.2703 28.9229L31.9092 26.2842C33.6372 24.6289 36.3628 24.6289 38.0908 26.2842L47.5 35.6934V42.5ZM47.5 32.1582L39.8584 24.5166C37.1741 21.8359 32.8259 21.8359 30.1416 24.5166L27.5027 27.1555L19.8608 19.5142C17.1747 16.8335 12.8253 16.8335 10.1392 19.5142L2.5 27.1533V7.5C2.50351 4.73999 4.73999 2.50351 7.5 2.5H42.5C45.26 2.50351 47.4965 4.73999 47.5 7.5V32.1582ZM28.75 10C26.6789 10 25 11.6789 25 13.75C25 15.8211 26.6789 17.5 28.75 17.5C30.8202 17.4977 32.4977 15.8202 32.5 13.75C32.5 11.6789 30.8211 10 28.75 10ZM28.75 15C28.0597 15 27.5 14.4403 27.5 13.75C27.5 13.0597 28.0597 12.5 28.75 12.5C29.4398 12.5014 29.9986 13.0602 30 13.75C30 14.4403 29.4403 15 28.75 15Z" fill="white"/>
</svg>
