<svg width="21" height="15" viewBox="0 0 21 15" fill="none" xmlns="http://www.w3.org/2000/svg">
<path d="M10.004 8.50415C10.8324 8.50415 11.504 7.83258 11.504 7.00415C11.504 6.17572 10.8324 5.50415 10.004 5.50415C9.17554 5.50415 8.50397 6.17572 8.50397 7.00415C8.50397 7.83258 9.17554 8.50415 10.004 8.50415Z" fill="white"/>
<path d="M19.874 6.50427C19.234 5.39427 15.714 -0.175734 9.73397 0.00426608C4.20397 0.144266 1.00397 5.00427 0.133975 6.50427C0.0462063 6.65629 0 6.82873 0 7.00427C0 7.1798 0.0462063 7.35225 0.133975 7.50427C0.763975 8.59427 4.13398 14.0043 10.024 14.0043H10.274C15.804 13.8643 19.014 9.00427 19.874 7.50427C19.9617 7.35225 20.0079 7.1798 20.0079 7.00427C20.0079 6.82873 19.9617 6.65629 19.874 6.50427ZM10.004 10.5043C9.31174 10.5043 8.63505 10.299 8.05948 9.91441C7.48391 9.52982 7.0353 8.9832 6.7704 8.34366C6.50549 7.70412 6.43618 7.00038 6.57123 6.32145C6.70627 5.64252 7.03962 5.01888 7.5291 4.52939C8.01858 4.03991 8.64222 3.70657 9.32116 3.57152C10.0001 3.43647 10.7038 3.50578 11.3434 3.77069C11.9829 4.03559 12.5295 4.4842 12.9141 5.05977C13.2987 5.63534 13.504 6.31203 13.504 7.00427C13.504 7.93252 13.1352 8.82276 12.4788 9.47914C11.8225 10.1355 10.9322 10.5043 10.004 10.5043Z" fill="white"/>
</svg>
