<svg width="24" height="24" viewBox="0 0 24 24" fill="none" xmlns="http://www.w3.org/2000/svg">
<path d="M12 13.5C12.8284 13.5 13.5 12.8284 13.5 12C13.5 11.1716 12.8284 10.5 12 10.5C11.1716 10.5 10.5 11.1716 10.5 12C10.5 12.8284 11.1716 13.5 12 13.5Z" fill="white"/>
<path d="M15.29 18.1199L14 16.7799L13.93 16.7099L12.66 15.4399C12.4585 15.4752 12.2546 15.4953 12.05 15.4999C11.5862 15.5066 11.1257 15.4209 10.6953 15.248C10.2648 15.0751 9.87307 14.8183 9.54275 14.4927C9.21243 14.167 8.95014 13.7789 8.77113 13.351C8.59212 12.9231 8.49996 12.4638 8.50001 11.9999C8.50465 11.7954 8.5247 11.5915 8.56001 11.3899L6.56001 9.38994L5.00001 7.86994C3.87133 8.93341 2.90442 10.1564 2.13001 11.4999C2.04224 11.652 1.99603 11.8244 1.99603 11.9999C1.99603 12.1755 2.04224 12.3479 2.13001 12.4999C2.76001 13.5899 6.13001 18.9999 12.02 18.9999H12.27C13.3776 18.9671 14.4708 18.7403 15.5 18.3299L15.29 18.1199ZM8.59001 5.75994L11.39 8.55994C11.5915 8.52464 11.7955 8.50458 12 8.49994C12.9283 8.49994 13.8185 8.86869 14.4749 9.52507C15.1313 10.1814 15.5 11.0717 15.5 11.9999C15.4954 12.2045 15.4753 12.4084 15.44 12.6099L18.12 15.2899L18.96 16.1299C20.1028 15.0693 21.0834 13.8462 21.87 12.4999C21.9578 12.3479 22.004 12.1755 22.004 11.9999C22.004 11.8244 21.9578 11.652 21.87 11.4999C21.23 10.3899 17.71 4.81994 11.73 4.99994C10.6225 5.0328 9.52924 5.25956 8.50001 5.66994L8.59001 5.75994ZM20.71 19.2899L19.41 17.9999L17.41 15.9999L7.89001 6.46994L6.42001 4.99994L4.71001 3.28994C4.61677 3.1967 4.50608 3.12274 4.38426 3.07228C4.26243 3.02182 4.13187 2.99585 4.00001 2.99585C3.86815 2.99585 3.73758 3.02182 3.61576 3.07228C3.49394 3.12274 3.38325 3.1967 3.29001 3.28994C3.1017 3.47825 2.99592 3.73364 2.99592 3.99994C2.99592 4.26624 3.1017 4.52164 3.29001 4.70994L5.53001 6.99994L7.28001 8.69994L14.59 15.9999L14.66 16.0699L16 17.4099L16.59 17.9999L19.29 20.7099C19.383 20.8037 19.4936 20.8781 19.6154 20.9288C19.7373 20.9796 19.868 21.0057 20 21.0057C20.132 21.0057 20.2627 20.9796 20.3846 20.9288C20.5064 20.8781 20.617 20.8037 20.71 20.7099C20.8037 20.617 20.8781 20.5064 20.9289 20.3845C20.9797 20.2627 21.0058 20.132 21.0058 19.9999C21.0058 19.8679 20.9797 19.7372 20.9289 19.6154C20.8781 19.4935 20.8037 19.3829 20.71 19.2899Z" fill="white"/>
</svg>
