<svg xmlns="http://www.w3.org/2000/svg" xmlns:xlink="http://www.w3.org/1999/xlink" viewBox="0,0,256,256" width="50px" height="50px" fill-rule="nonzero"><g fill-opacity="0" fill="#dddddd" fill-rule="nonzero" stroke="none" stroke-width="1" stroke-linecap="butt" stroke-linejoin="miter" stroke-miterlimit="10" stroke-dasharray="" stroke-dashoffset="0" font-family="none" font-weight="none" font-size="none" text-anchor="none" style="mix-blend-mode: normal"><path d="M0,256v-256h256v256z" id="bgRectangle"></path></g><g fill="#ffffff" fill-rule="nonzero" stroke="none" stroke-width="1" stroke-linecap="butt" stroke-linejoin="miter" stroke-miterlimit="10" stroke-dasharray="" stroke-dashoffset="0" font-family="none" font-weight="none" font-size="none" text-anchor="none" style="mix-blend-mode: normal"><g transform="scale(2.56,2.56)"><path d="M74.66016,5.02148c-0.00073,0 -5.39251,0.05548 -9.84961,3.93164l-3.62109,-3.20508c-0.17649,-0.15672 -0.40272,-0.24596 -0.63867,-0.25195c-0.29801,-0.00729 -0.58375,0.11875 -0.7793,0.34375l-4.94531,5.6875l-6.50391,-0.96094c-0.25644,-0.03805 -0.51764,0.02498 -0.72852,0.17578l-5.86328,4.20117l-2.57031,-3.20312c-0.19078,-0.23827 -0.47992,-0.37637 -0.78516,-0.375c-0.33765,0.0024 -0.6513,0.17501 -0.83398,0.45899l-2.14453,3.33008c-0.26344,-0.1059 -0.5464,-0.15451 -0.83008,-0.14258c-0.11299,0.0048 -0.22537,0.01917 -0.33594,0.04297c-5.66596,1.15701 -8.52771,3.1743 -9.82422,5.34961c-1.28336,2.15325 -0.667,4.38628 -0.6543,4.43164c-0.12838,0.48784 -0.06769,1.00618 0.16992,1.45117c-0.0897,0.21469 -0.14125,0.44338 -0.15234,0.67578c-1.11947,23.51687 1.09704,42.51487 0.00195,60.04297c-0.0588,0.94168 0.54845,1.7964 1.45703,2.05078c16.25185,4.53521 35.10049,4.20183 52.13867,0.01563c0.87658,-0.2158 1.49997,-0.99203 1.52148,-1.89453c0.29247,-12.22157 -0.05049,-25.51945 -1.10742,-40.03125l1.57422,-21.67773c0.00867,-0.10725 0.00867,-0.21502 0,-0.32227c0.02394,-0.10341 0.03962,-0.20856 0.04688,-0.31445c0.14674,-2.22552 -0.32572,-4.89755 -2.30273,-7.57227c-0.2341,-0.32737 -0.56152,-0.5765 -0.93945,-0.71484c0.23165,-0.66045 0.41383,-1.37349 0.51953,-2.1582c0.30203,-2.2423 0.03426,-5.00469 -1.0625,-8.65234c-0.12675,-0.42278 -0.51566,-0.71248 -0.95703,-0.71289zM73.87305,7.08789c0.82276,3.01293 1.05444,5.32207 0.82422,7.03125c-0.21478,1.59456 -0.79001,2.7465 -1.51172,3.82031l-10.29492,-3.06836c0.65533,-1.37258 1.42746,-2.49504 2.25391,-3.42773c-0.00462,0.36705 0.06574,0.76248 0.27734,1.12891c0.33886,0.58682 0.92987,1.02942 1.74414,1.36719c0.94746,0.39351 1.96148,0.26575 2.64648,-0.22851c0.685,-0.49427 1.06085,-1.25885 1.09766,-2.05859c0.03681,-0.79974 -0.32822,-1.69083 -1.10937,-2.21094c-0.39058,-0.26006 -0.85242,-0.42167 -1.37695,-0.48437c-0.09766,-0.01168 -0.20857,-0.00295 -0.31055,-0.00781c2.42673,-1.47361 4.76461,-1.79644 5.75977,-1.86133zM60.61914,7.91406l2.76367,2.44727c-1.10811,1.26508 -2.10413,2.82335 -2.86328,4.75977c-0.10242,0.26048 -0.09099,0.55196 0.0315,0.80363c0.12249,0.25167 0.34484,0.44049 0.61303,0.52059l6.9375,2.06641l-0.66992,1.63281l-5.29883,-1.47852c-0.348,-0.10854 -0.7275,-0.01913 -0.99045,0.23335c-0.26295,0.25248 -0.36769,0.62803 -0.27337,0.98016c0.09432,0.35212 0.37277,0.62504 0.72671,0.71227l5.07422,1.41602l-1.17969,2.88086l-3.24219,-1.04492c-0.34417,-0.12558 -0.72946,-0.05291 -1.00426,0.1894c-0.27479,0.24231 -0.39509,0.61548 -0.31357,0.97266c0.08153,0.35718 0.35183,0.6412 0.70454,0.74028l2.82617,0.91211c-2.01639,0.37763 -4.02148,0.65689 -6,0.85156c0.00479,-0.04802 0.00609,-0.09632 0.00391,-0.14453l-0.47656,-10.25977c-0.01437,-0.307 -0.16909,-0.59034 -0.41959,-0.76839c-0.2505,-0.17806 -0.56895,-0.23105 -0.86361,-0.14372l-11.28906,3.3418l-2.43164,-3.03125l5.44727,-3.90039l6.64258,0.98242c0.33774,0.05065 0.67798,-0.07455 0.90234,-0.33203zM68.21289,11.00781c0.23,0.01196 0.40042,0.04566 0.47852,0.09766c0.19119,0.1273 0.23002,0.25269 0.2207,0.45508c-0.0093,0.20238 -0.12958,0.42691 -0.27148,0.5293c-0.1419,0.10239 -0.28645,0.1774 -0.70898,0.00195c-0.55623,-0.23073 -0.73482,-0.4425 -0.7793,-0.51953c-0.04448,-0.07703 -0.04021,-0.07768 -0.00781,-0.18945c0.03769,-0.13008 0.13058,-0.21722 0.23047,-0.34375c0.31831,-0.03342 0.60789,-0.04321 0.83789,-0.03125zM38.4707,14.07617l5.80469,7.23438c0.25448,0.31656 0.67513,0.44777 1.06445,0.33203l10.70898,-3.16992l0.41797,8.98438c0.00344,0.07465 0.01523,0.14868 0.03516,0.2207c-4.66365,0.33463 -9.1297,0.22633 -13.125,-0.14062c-4.76415,-0.43757 -8.86194,-1.22996 -11.80664,-2.00977c-0.14944,-0.03957 -0.25889,-0.07769 -0.40234,-0.11719l4.21289,-6.53711c0.80483,-0.31433 1.31684,-1.10992 1.26953,-1.97266zM70.02734,19.08594l3.32422,0.99023c0.25884,0.07695 0.5378,0.04595 0.77344,-0.08594c0.93634,1.36454 1.2467,2.44433 1.29492,3.54102c-2.35111,0.93031 -4.73737,1.68669 -7.13086,2.28906c-0.06689,-0.04078 -0.13835,-0.07355 -0.21289,-0.09766l-0.67773,-0.21875l1.21094,-2.95312l1.9668,0.54883c0.34438,0.09601 0.71381,0.00098 0.96912,-0.24928c0.25531,-0.25026 0.35769,-0.61773 0.26858,-0.96395c-0.08911,-0.34623 -0.35618,-0.6186 -0.70059,-0.7145l-1.74023,-0.48633zM32.51563,19.625l-3.08008,4.7832c-0.08692,0.12929 -0.14243,0.2771 -0.16211,0.43164c-0.42935,-0.14339 -0.84955,-0.28619 -1.16602,-0.41211c-0.20928,-0.08327 -0.30657,-0.137 -0.45898,-0.20703c0.00197,-0.22791 -0.03502,-0.45448 -0.10938,-0.66992c0,0 -0.21651,-0.22841 0.30273,-1.09961c0.41916,-0.70328 1.59767,-1.86274 4.67383,-2.82617zM75.16797,27.90625l-1.38281,19.06836c-0.00707,0.09688 -0.00707,0.19414 0,0.29102c0.03015,0.41198 0.05311,0.8128 0.08203,1.22266c-1.87492,0.82786 -3.84131,0.85156 -6.97852,0.85156c-0.36064,-0.0051 -0.69608,0.18438 -0.87789,0.49587c-0.18181,0.3115 -0.18181,0.69676 0,1.00825c0.18181,0.3115 0.51725,0.50097 0.87789,0.49587c2.83605,0 5.01731,0.00234 7.12109,-0.75195c0.82896,12.55536 1.08539,24.12205 0.87695,34.87891c-9.25328,2.13113 -19.01104,3.06307 -28.48828,2.67578l0.63086,-1.91406c0.10518,-0.30496 0.0568,-0.64194 -0.12993,-0.90499c-0.18673,-0.26305 -0.48888,-0.41988 -0.81147,-0.42118c-0.43836,-0.00229 -0.82711,0.28116 -0.95898,0.69922l-0.80469,2.4375c-1.03156,-0.06371 -2.0577,-0.14427 -3.08008,-0.24023l1.14453,-1.60742c0.22263,-0.30337 0.25614,-0.70603 0.0867,-1.04203c-0.16944,-0.33599 -0.51314,-0.54844 -0.88943,-0.54977c-0.3297,-0.0011 -0.63877,0.16037 -0.82617,0.43164l-1.80078,2.53125c-0.80584,-0.0956 -1.6064,-0.20397 -2.4043,-0.32031l1.2207,-2.44336c0.16492,-0.3182 0.14697,-0.70032 -0.04706,-1.00165c-0.19403,-0.30133 -0.53447,-0.4758 -0.89239,-0.45733c-0.36508,0.01873 -0.69085,0.23517 -0.84961,0.56445l-1.50195,3.00586c-1.1052,-0.18819 -2.20163,-0.39547 -3.28711,-0.625l1.57813,-3.1543c0.16514,-0.31852 0.147,-0.70108 -0.04752,-1.00255c-0.19452,-0.30147 -0.53562,-0.47564 -0.89389,-0.45643c-0.36436,0.01943 -0.68923,0.23576 -0.84766,0.56445l-1.66797,3.33398c-0.04195,0.08521 -0.07154,0.17597 -0.08789,0.26953c-0.47534,-0.11303 -0.95506,-0.21855 -1.42578,-0.33984c0.87183,-17.15489 -1.01731,-35.17404 -0.09375,-56.9707c0.82603,0.28592 1.73845,0.5746 2.83594,0.86523c0.64549,0.17094 1.36636,0.33938 2.09961,0.50586l-1.66016,3.32227c-0.17197,0.32106 -0.15581,0.71022 0.04219,1.01591c0.198,0.30569 0.54653,0.47957 0.90984,0.45392c0.36331,-0.02565 0.68395,-0.24678 0.83703,-0.57725l1.66602,-3.33398c0.07728,-0.14952 0.11557,-0.31612 0.11133,-0.48437c0.92304,0.1828 1.8933,0.35334 2.91602,0.51563l-0.92578,1.85352c-0.15991,0.3196 -0.13713,0.70024 0.05975,0.99849c0.19688,0.29825 0.53794,0.46878 0.89467,0.44734c0.35673,-0.02144 0.67491,-0.23161 0.83464,-0.55129l1.21484,-2.43164c1.05507,0.13988 2.15183,0.26458 3.28516,0.37109l-1.00586,1.375c-0.22039,0.28772 -0.26788,0.67215 -0.12413,1.00485c0.14376,0.3327 0.45626,0.56159 0.81682,0.59828c0.36057,0.03669 0.71276,-0.12456 0.92059,-0.42149l1.74609,-2.38477c0.88544,0.05961 1.76686,0.11899 2.6875,0.15234l-0.68555,1.56055c-0.22221,0.5059 0.00777,1.09615 0.51367,1.31836c0.5059,0.22221 1.09615,-0.00777 1.31836,-0.51367l1.01758,-2.31445c0.89877,0.00994 1.80684,0.0081 2.73047,-0.01172l-0.73242,1.46484c-0.24702,0.49404 -0.04677,1.09478 0.44727,1.3418c0.49404,0.24702 1.09478,0.04677 1.3418,-0.44727l1.21875,-2.4375c1.04764,-0.05169 2.11005,-0.13044 3.17969,-0.22656l-0.73828,2.36914c-0.10617,0.34125 -0.02219,0.71322 0.2203,0.97575c0.24249,0.26253 0.60664,0.37572 0.95523,0.29692c0.34859,-0.0788 0.62864,-0.33762 0.73463,-0.67892l0.99414,-3.18945c1.06975,-0.12708 2.14579,-0.2772 3.22852,-0.45508l-0.86719,1.37891c-0.20183,0.30234 -0.22371,0.6904 -0.05715,1.01351c0.16657,0.32312 0.49534,0.53041 0.8587,0.5414c0.36336,0.01099 0.70406,-0.17605 0.88985,-0.48851l1.84766,-2.93164c1.26385,-0.25843 2.53246,-0.56443 3.80078,-0.90234l-1.24023,3.50391c-0.11944,0.33706 -0.04995,0.71224 0.18228,0.98416c0.23223,0.27192 0.59192,0.39927 0.94352,0.33404c0.3516,-0.06523 0.64167,-0.31311 0.76092,-0.65024l1.24414,-3.51367c0.14572,-0.39284 0.03112,-0.83487 -0.28711,-1.10742c1.16047,-0.34184 2.31955,-0.71654 3.47461,-1.13281zM36.99609,36.33398c-0.86902,0 -1.70291,0.3357 -2.31836,0.94531c-0.61691,0.61108 -0.9544,1.45295 -0.91406,2.31641c0,0.00065 0,0.0013 0,0.00195c0.15998,3.34258 0.44553,9.23384 0.44922,9.31055l-1.10937,18.38281c-0.00258,0.03575 -0.00323,0.07161 -0.00195,0.10742c0,0 0.28527,6.17517 0.44727,9.70703c0.08612,1.89887 1.73032,3.36133 3.64844,3.36133h1.13477c1.55052,0 2.88281,-1.22764 2.88281,-2.7832v-26.12891c0.0051,-0.36064 -0.18438,-0.69608 -0.49587,-0.87789c-0.3115,-0.18181 -0.69676,-0.18181 -1.00825,0c-0.3115,0.18181 -0.50097,0.51725 -0.49587,0.87789v26.12891c0,0.41444 -0.35734,0.7832 -0.88281,0.7832h-1.13477c-0.92188,0 -1.61451,-0.66004 -1.65039,-1.45117c0,-0.00065 0,-0.0013 0,-0.00195c-0.161,-3.51012 -0.44181,-9.57031 -0.44531,-9.64648l1.10938,-18.38672c0.002,-0.03643 0.002,-0.07294 0,-0.10937c0,0 -0.28823,-6.00544 -0.44922,-9.36914c-0.01367,-0.29255 0.09318,-0.57581 0.32227,-0.80273c0.22855,-0.22638 0.56113,-0.36523 0.91211,-0.36523h0.03125c0.59462,0 1.15959,0.22628 1.56641,0.61133c0.405,0.38534 0.62109,0.88941 0.62109,1.41016v5.40625c-0.0051,0.36064 0.18438,0.69608 0.49587,0.87789c0.3115,0.18181 0.69676,0.18181 1.00825,0c0.3115,-0.18181 0.50097,-0.51725 0.49587,-0.87789v-5.40625c0,-1.08065 -0.45605,-2.11284 -1.24414,-2.86133c-0.00065,-0.00065 -0.0013,-0.0013 -0.00195,-0.00195c-0.78918,-0.74695 -1.84403,-1.1582 -2.94141,-1.1582zM64.22656,36.33398c-0.86902,0 -1.70486,0.3357 -2.32031,0.94531c-0.61483,0.61046 -0.95445,1.4518 -0.91406,2.31641c0,0.00065 0,0.0013 0,0.00195c0.15997,3.34258 0.44553,9.23384 0.44922,9.31055l-1.10937,18.38281c-0.00258,0.03575 -0.00323,0.07161 -0.00195,0.10742c0,0 0.28425,6.17465 0.44727,9.70703c0.08612,1.89887 1.73031,3.36133 3.64844,3.36133h1.13672c1.55052,0 2.88086,-1.22764 2.88086,-2.7832v-22.96875c0.0051,-0.36064 -0.18438,-0.69608 -0.49587,-0.87789c-0.3115,-0.18181 -0.69676,-0.18181 -1.00825,0c-0.3115,0.18181 -0.50097,0.51725 -0.49587,0.87789v22.96875c0,0.41444 -0.35538,0.7832 -0.88086,0.7832h-1.13672c-0.92188,0 -1.61451,-0.66004 -1.65039,-1.45117c0,-0.00065 0,-0.0013 0,-0.00195c-0.16197,-3.50961 -0.44182,-9.57031 -0.44531,-9.64648l1.10938,-18.38672c0.00265,-0.0364 0.0033,-0.07291 0.00195,-0.10937c0,0 -0.29019,-6.00544 -0.45117,-9.36914c-0.01361,-0.2914 0.09505,-0.5752 0.32422,-0.80273c0.22855,-0.22638 0.56113,-0.36523 0.91211,-0.36523h0.03125c0.59398,0 1.15774,0.22704 1.56445,0.61133c0.40614,0.38509 0.62109,0.88797 0.62109,1.41016v5.40625c-0.0051,0.36064 0.18438,0.69608 0.49587,0.87789c0.3115,0.18181 0.69676,0.18181 1.00825,0c0.3115,-0.18181 0.50097,-0.51725 0.49587,-0.87789v-5.40625c0,-1.07982 -0.45428,-2.11241 -1.24414,-2.86133c0,-0.00065 0,-0.0013 0,-0.00195c-0.78923,-0.74691 -1.84403,-1.1582 -2.94141,-1.1582zM50.52344,37.38672c-1.91271,0 -3.5525,1.45376 -3.64844,3.3457c-0.16299,3.25186 -0.43555,8.66602 -0.43555,8.66602c-0.00134,0.03647 -0.00069,0.07298 0.00195,0.10937l1.10938,18.39063c-0.0031,0.077 -0.31059,7.58217 -0.4668,11.43359c-0.03436,0.86203 0.30704,1.69714 0.91992,2.30273c0.00065,0.0013 0.0013,0.00261 0.00195,0.00391c0.61506,0.6034 1.44682,0.93359 2.3125,0.93359h0.04688c1.09659,0 2.1518,-0.40889 2.94141,-1.15625c0,-0.00065 0,-0.0013 0,-0.00195c0.78986,-0.74891 1.24609,-1.78151 1.24609,-2.86133v-7.51367c0.0051,-0.36064 -0.18438,-0.69608 -0.49587,-0.87789c-0.3115,-0.18181 -0.69676,-0.18181 -1.00825,0c-0.3115,0.18181 -0.50097,0.51725 -0.49587,0.87789v7.51367c0,0.52218 -0.21495,1.02507 -0.62109,1.41016c-0.40639,0.38464 -0.971,0.60938 -1.56641,0.60938h-0.04687c-0.34942,0 -0.67932,-0.13581 -0.9082,-0.35937l-0.00195,-0.00195c-0.22779,-0.22597 -0.33582,-0.50772 -0.32422,-0.79883c0.15699,-3.87084 0.4668,-11.49219 0.4668,-11.49219c0.001,-0.03322 0.00035,-0.06646 -0.00195,-0.09961l-1.10742,-18.38281c0.0038,-0.07481 0.26977,-5.37412 0.43164,-8.60352c0.04006,-0.79006 0.7311,-1.44727 1.65039,-1.44727h1.14844c0.2465,0 0.47972,0.09583 0.64063,0.24805c0.16193,0.15367 0.23828,0.34123 0.23828,0.53516v25.07617c-0.0051,0.36064 0.18438,0.69608 0.49587,0.87789c0.3115,0.18181 0.69676,0.18181 1.00825,0c0.3115,-0.18181 0.50097,-0.51725 0.49587,-0.87789v-25.07617c0,-0.75207 -0.31921,-1.47 -0.86328,-1.98633c0,-0.00065 0,-0.0013 0,-0.00195c-0.5431,-0.51373 -1.26412,-0.79492 -2.01562,-0.79492zM71.33398,71.57031c-0.613,0 -1.11133,0.49833 -1.11133,1.11133c0,0.613 0.49733,1.11133 1.11133,1.11133c0.614,0 1.11133,-0.49733 1.11133,-1.11133c0,-0.613 -0.49733,-1.11133 -1.11133,-1.11133zM72.0293,77.61523c-0.614,0 -1.10937,0.49833 -1.10937,1.11133c0,0.613 0.49537,1.11133 1.10938,1.11133c0.613,0 1.11133,-0.49733 1.11133,-1.11133c0,-0.614 -0.49833,-1.11133 -1.11133,-1.11133zM68.48242,82.50781c-0.614,0 -1.11133,0.49833 -1.11133,1.11133c0,0.613 0.49733,1.11133 1.11133,1.11133c0.613,0 1.11133,-0.49833 1.11133,-1.11133c0,-0.614 -0.49833,-1.11133 -1.11133,-1.11133z"></path></g></g></svg>