<svg width="64" height="64" viewBox="0 0 64 64" fill="none" xmlns="http://www.w3.org/2000/svg">
<path d="M32 52.7199C27.925 52.7167 23.944 51.4949 20.5688 49.2115C17.1935 46.9281 14.5783 43.6876 13.0591 39.9063C11.5399 36.125 11.1862 31.9758 12.0435 27.9919C12.9008 24.0081 14.9299 20.3716 17.87 17.5499C17.963 17.4562 18.0736 17.3818 18.1955 17.3311C18.3173 17.2803 18.448 17.2542 18.58 17.2542C18.712 17.2542 18.8428 17.2803 18.9646 17.3311C19.0865 17.3818 19.1971 17.4562 19.29 17.5499C19.4763 17.7373 19.5808 17.9908 19.5808 18.2549C19.5808 18.5191 19.4763 18.7726 19.29 18.9599C16.6343 21.5032 14.8005 24.783 14.0247 28.3774C13.2489 31.9717 13.5666 35.7159 14.9369 39.1281C16.3072 42.5404 18.6674 45.4643 21.7137 47.5237C24.76 49.5831 28.3529 50.6837 32.03 50.6837C35.7071 50.6837 39.3001 49.5831 42.3464 47.5237C45.3926 45.4643 47.7529 42.5404 49.1232 39.1281C50.4935 35.7159 50.8112 31.9717 50.0354 28.3774C49.2596 24.783 47.4258 21.5032 44.77 18.9599C44.5838 18.7726 44.4792 18.5191 44.4792 18.2549C44.4792 17.9908 44.5838 17.7373 44.77 17.5499C44.863 17.4562 44.9736 17.3818 45.0955 17.3311C45.2173 17.2803 45.348 17.2542 45.48 17.2542C45.612 17.2542 45.7428 17.2803 45.8646 17.3311C45.9865 17.3818 46.0971 17.4562 46.19 17.5499C49.1338 20.3752 51.1643 24.0171 52.0197 28.0066C52.8752 31.9961 52.5165 36.1503 50.9898 39.9341C49.4632 43.7179 46.8385 46.9579 43.454 49.2367C40.0695 51.5155 36.0802 52.7287 32 52.7199Z" fill="#FFFFFF"/>
<path d="M32 34C31.7348 34 31.4804 33.8947 31.2929 33.7071C31.1054 33.5196 31 33.2652 31 33V12.28C31 12.0148 31.1054 11.7605 31.2929 11.5729C31.4804 11.3854 31.7348 11.28 32 11.28C32.2652 11.28 32.5196 11.3854 32.7071 11.5729C32.8946 11.7605 33 12.0148 33 12.28V33C33 33.2652 32.8946 33.5196 32.7071 33.7071C32.5196 33.8947 32.2652 34 32 34Z" fill="#FFFFFF"/>
</svg>
