<svg width="64" height="64" viewBox="0 0 34 34" fill="none" xmlns="http://www.w3.org/2000/svg">
<path d="M8.04184 27.2072L11.5796 26.5093C11.666 26.4922 11.7464 26.4526 11.8126 26.3944C11.8788 26.3363 11.9284 26.2617 11.9565 26.1782L12.5853 24.3098L19.3565 18.7642C20.551 17.7863 21.6235 16.6683 22.551 15.4343L23.2875 14.4562C23.3659 14.5104 23.4604 14.5361 23.5554 14.5289C23.6247 14.5264 23.6926 14.5093 23.7549 14.4788C23.8172 14.4483 23.8723 14.405 23.9168 14.3518L27.4336 10.1498C27.7139 9.86967 27.9048 9.51266 27.9821 9.12398C28.0594 8.7353 28.0197 8.33242 27.8679 7.96632C27.7162 7.60021 27.4593 7.28735 27.1297 7.06731C26.8001 6.84727 26.4126 6.72995 26.0163 6.73019C25.8363 6.72973 25.6583 6.76128 25.4851 6.80883C25.4323 6.7407 25.3835 6.67157 25.3217 6.60841C24.9287 6.21441 24.4102 6.01908 23.8972 6.01776C23.3942 6.01647 22.8977 6.2032 22.5267 6.57325L18.2737 10.0974C18.1719 10.1824 18.108 10.3043 18.0962 10.4364C18.0843 10.5685 18.1254 10.6999 18.2104 10.8017C18.2954 10.9035 18.4174 10.9674 18.5495 10.9792C18.6815 10.9911 18.8129 10.95 18.9147 10.865L23.1989 7.31098C23.3868 7.1246 23.6409 7.02032 23.9056 7.021C24.1703 7.02168 24.4239 7.12725 24.6108 7.31459L20.3929 10.8098C20.3397 10.8542 20.2963 10.9092 20.2655 10.9713C20.2347 11.0333 20.2172 11.1011 20.214 11.1703C20.2118 11.2677 20.2395 11.3634 20.2933 11.4445L19.3324 12.1521C18.0733 13.083 16.9321 14.1637 15.9342 15.3704L10.3719 22.0922L8.50536 22.7084C8.42161 22.7361 8.34669 22.7856 8.28821 22.8516C8.22973 22.9177 8.18978 22.998 8.1724 23.0845L7.45534 26.6187C7.45231 26.6317 7.45828 26.6447 7.45724 26.6577C7.45061 26.7103 7.4525 26.7637 7.46284 26.8157C7.46678 26.8377 7.46773 26.8567 7.47468 26.8778C7.4974 26.9499 7.53661 27.0157 7.58919 27.0701C7.64326 27.1229 7.70889 27.1625 7.78089 27.1856C7.80287 27.1936 7.82387 27.1947 7.84685 27.1997C7.89816 27.2103 7.95084 27.2125 8.00284 27.2061C8.01584 27.2042 8.02883 27.2092 8.04184 27.2072ZM9.46717 25.9089L10.3564 25.0241C10.4478 24.9301 10.4985 24.8039 10.4977 24.6728C10.4969 24.5417 10.4446 24.4162 10.3521 24.3232C10.2597 24.2303 10.1344 24.1774 10.0033 24.1759C9.87221 24.1744 9.74578 24.2245 9.65125 24.3153L8.76198 25.2001L9.09216 23.5699L10.6465 23.0539L11.621 24.0354L11.099 25.587L9.46717 25.9089ZM12.2749 23.273L11.4121 22.4058L12.0521 21.6305L13.0516 22.636L12.2749 23.274L12.2749 23.273ZM13.8282 22L12.6911 20.8571L16.7056 16.0074C17.6517 14.8644 18.7332 13.8406 19.9264 12.9586L20.9854 12.1763L22.5593 13.7584L21.7516 14.8323C20.8722 16.0024 19.8556 17.0628 18.7235 17.9905L13.8282 22ZM23.5025 13.2868L21.4528 11.2275L25.317 8.02441C25.4101 7.9317 25.5204 7.85824 25.6419 7.80824C25.7633 7.75824 25.8934 7.73268 26.0248 7.73302C26.1561 7.73335 26.2861 7.75958 26.4073 7.8102C26.5285 7.86082 26.6385 7.93485 26.731 8.02803C27.12 8.41903 27.1184 9.05302 26.6973 9.47495L23.5025 13.2868Z" fill="#FFBD59"/>
</svg>
